<svg xmlns="http://www.w3.org/2000/svg" viewBox="0 0 500 500"><g id="freepik--background-complete--inject-500"><path d="M114,116.4l-70.75-.11s3.52-4.57,7.4-5.14c0,0,7.58-22.44,20.21-22.58,11.74-.13,16.42,13.83,16.42,13.83S92.77,96.15,98,99s8.13,11.07,8.13,11.07S111.93,113.25,114,116.4Z" style="fill:#ebebeb"></path><path d="M367.24,136.4l89.47.13s0-5.71-12.31-6.85c0,0-11.22-25-28.41-21.67-10.7,2.07-16.19,16.75-16.19,16.75s-8.07-11.57-14.54-9.34S374.93,130,374.93,130,368.26,133.17,367.24,136.4Z" style="fill:#ebebeb"></path><path d="M352.5,222l60.84.09s-5.73-5.35-8.29-5.35-10-18-19.48-17.21S371,213.59,371,213.59,359.42,210,352.5,222Z" style="fill:#ebebeb"></path><path d="M343.44,67.47l52,.08s-2.58-3.38-5.43-3.8c0,0-5.52-16.52-14.81-16.65-8.63-.13-12.11,10.13-12.11,10.13s-4-4.61-7.81-2.51-6,8.12-6,8.12S345,65.15,343.44,67.47Z" style="fill:#ebebeb"></path><path d="M77.81,193.38l52,.08s-2.58-3.37-5.44-3.8c0,0-5.52-16.52-14.8-16.65-8.64-.12-12.11,10.14-12.11,10.14s-4-4.61-7.82-2.51-6,8.12-6,8.12S79.37,191.07,77.81,193.38Z" style="fill:#ebebeb"></path><polygon points="48.17 199.17 48.17 390.18 451.83 390.18 451.83 279.36 416.81 279.36 416.81 321.89 407.79 321.89 407.79 297.82 363.27 297.82 363.27 335.94 357.37 335.94 357.37 185.47 318.67 185.47 318.67 271.02 298.83 271.02 298.83 301.58 292.82 301.58 292.82 282.37 257.64 282.37 257.64 339.7 247.35 339.7 247.35 293.1 215.17 293.1 215.17 257.68 193.3 257.68 193.3 237.52 167.99 237.52 167.99 326.96 159.47 326.96 159.47 228.62 117.78 228.62 117.78 282.05 112.02 282.05 112.02 238.44 69.74 238.44 69.74 199.17 48.17 199.17" style="fill:#ebebeb"></polygon><rect x="441.61" y="284.71" width="5.92" height="8.13" transform="translate(889.14 577.55) rotate(180)" style="fill:#fff"></rect><rect x="431.34" y="284.71" width="5.92" height="8.13" transform="translate(868.6 577.55) rotate(180)" style="fill:#fff"></rect><rect x="421.07" y="284.71" width="5.92" height="8.13" transform="translate(848.07 577.55) rotate(180)" style="fill:#fff"></rect><rect x="441.61" y="296.94" width="5.92" height="8.13" transform="translate(889.14 602.02) rotate(180)" style="fill:#fff"></rect><rect x="431.34" y="296.94" width="5.92" height="8.13" transform="translate(868.6 602.02) rotate(180)" style="fill:#fff"></rect><rect x="421.07" y="296.94" width="5.92" height="8.13" transform="translate(848.07 602.02) rotate(180)" style="fill:#fff"></rect><rect x="441.61" y="309.18" width="5.92" height="8.13" transform="translate(889.14 626.49) rotate(180)" style="fill:#fff"></rect><rect x="431.34" y="309.18" width="5.92" height="8.13" transform="translate(868.6 626.49) rotate(180)" style="fill:#fff"></rect><rect x="421.07" y="309.18" width="5.92" height="8.13" transform="translate(848.07 626.49) rotate(180)" style="fill:#fff"></rect><rect x="441.61" y="321.41" width="5.92" height="8.13" transform="translate(889.14 650.95) rotate(180)" style="fill:#fff"></rect><rect x="431.34" y="321.41" width="5.92" height="8.13" transform="translate(868.6 650.95) rotate(180)" style="fill:#fff"></rect><rect x="421.07" y="321.41" width="5.92" height="8.13" transform="translate(848.07 650.95) rotate(180)" style="fill:#fff"></rect><rect x="236.48" y="298.9" width="5.92" height="6.78" transform="translate(478.89 604.59) rotate(180)" style="fill:#fff"></rect><rect x="226.21" y="298.9" width="5.92" height="6.78" transform="translate(458.35 604.59) rotate(180)" style="fill:#fff"></rect><rect x="215.94" y="298.9" width="5.92" height="6.78" transform="translate(437.81 604.59) rotate(180)" style="fill:#fff"></rect><rect x="236.48" y="309.11" width="5.92" height="6.78" transform="translate(478.89 625) rotate(180)" style="fill:#fff"></rect><rect x="226.21" y="309.11" width="5.92" height="6.78" transform="translate(458.35 625) rotate(180)" style="fill:#fff"></rect><rect x="215.94" y="309.11" width="5.92" height="6.78" transform="translate(437.81 625) rotate(180)" style="fill:#fff"></rect><rect x="236.48" y="319.31" width="5.92" height="6.78" transform="translate(478.89 645.41) rotate(180)" style="fill:#fff"></rect><rect x="226.21" y="319.31" width="5.92" height="6.78" transform="translate(458.35 645.41) rotate(180)" style="fill:#fff"></rect><rect x="215.94" y="319.31" width="5.92" height="6.78" transform="translate(437.81 645.41) rotate(180)" style="fill:#fff"></rect><rect x="236.48" y="329.52" width="5.92" height="6.78" transform="translate(478.89 665.82) rotate(180)" style="fill:#fff"></rect><rect x="226.21" y="329.52" width="5.92" height="6.78" transform="translate(458.35 665.82) rotate(180)" style="fill:#fff"></rect><rect x="215.94" y="329.52" width="5.92" height="6.78" transform="translate(437.81 665.82) rotate(180)" style="fill:#fff"></rect><rect x="236.48" y="339.98" width="5.92" height="6.78" transform="translate(478.89 686.74) rotate(180)" style="fill:#fff"></rect><rect x="226.21" y="339.98" width="5.92" height="6.78" transform="translate(458.35 686.74) rotate(180)" style="fill:#fff"></rect><rect x="215.94" y="339.98" width="5.92" height="6.78" transform="translate(437.81 686.74) rotate(180)" style="fill:#fff"></rect><rect x="236.48" y="350.44" width="5.92" height="6.78" transform="translate(478.89 707.66) rotate(180)" style="fill:#fff"></rect><rect x="226.21" y="350.44" width="5.92" height="6.78" transform="translate(458.35 707.66) rotate(180)" style="fill:#fff"></rect><rect x="215.94" y="350.44" width="5.92" height="6.78" transform="translate(437.81 707.66) rotate(180)" style="fill:#fff"></rect><rect x="236.48" y="360.9" width="5.92" height="6.78" transform="translate(478.89 728.58) rotate(180)" style="fill:#fff"></rect><rect x="226.21" y="360.9" width="5.92" height="6.78" transform="translate(458.35 728.58) rotate(180)" style="fill:#fff"></rect><rect x="215.94" y="360.9" width="5.92" height="6.78" transform="translate(437.81 728.58) rotate(180)" style="fill:#fff"></rect><rect x="236.48" y="371.36" width="5.92" height="6.78" transform="translate(478.89 749.5) rotate(180)" style="fill:#fff"></rect><rect x="226.21" y="371.36" width="5.92" height="6.78" transform="translate(458.35 749.5) rotate(180)" style="fill:#fff"></rect><rect x="215.94" y="371.36" width="5.92" height="6.78" transform="translate(437.81 749.5) rotate(180)" style="fill:#fff"></rect><rect x="368.63" y="303.03" width="34.11" height="5.09" transform="translate(771.37 611.14) rotate(180)" style="fill:#fff"></rect><rect x="368.63" y="312.9" width="34.11" height="5.09" transform="translate(771.37 630.88) rotate(180)" style="fill:#fff"></rect><rect x="368.63" y="322.76" width="34.11" height="5.09" transform="translate(771.37 650.61) rotate(180)" style="fill:#fff"></rect><rect x="368.63" y="332.63" width="34.11" height="5.09" transform="translate(771.37 670.34) rotate(180)" style="fill:#fff"></rect><rect x="368.63" y="342.5" width="34.11" height="5.08" transform="translate(771.37 690.08) rotate(180)" style="fill:#fff"></rect><rect x="368.63" y="352.36" width="34.11" height="5.09" transform="translate(771.37 709.81) rotate(180)" style="fill:#fff"></rect><rect x="368.63" y="362.23" width="34.11" height="5.09" transform="translate(771.37 729.54) rotate(180)" style="fill:#fff"></rect><rect x="368.63" y="372.09" width="34.11" height="5.09" transform="translate(771.37 749.27) rotate(180)" style="fill:#fff"></rect><rect x="123.07" y="233.37" width="31.36" height="5.09" transform="translate(277.5 471.82) rotate(180)" style="fill:#fff"></rect><rect x="123.07" y="243.24" width="31.36" height="5.09" transform="translate(277.5 491.56) rotate(180)" style="fill:#fff"></rect><rect x="123.07" y="253.1" width="31.36" height="5.08" transform="translate(277.5 511.29) rotate(180)" style="fill:#fff"></rect><rect x="123.07" y="262.97" width="31.36" height="5.08" transform="translate(277.5 531.02) rotate(180)" style="fill:#fff"></rect><rect x="123.07" y="272.84" width="31.36" height="5.09" style="fill:#fff"></rect><rect x="123.07" y="282.7" width="31.36" height="5.09" transform="translate(277.5 570.49) rotate(180)" style="fill:#fff"></rect><rect x="123.07" y="292.57" width="31.36" height="5.09" transform="translate(277.5 590.22) rotate(180)" style="fill:#fff"></rect><rect x="123.07" y="302.44" width="31.36" height="5.09" transform="translate(277.5 609.96) rotate(180)" style="fill:#fff"></rect><rect x="123.07" y="311.81" width="31.36" height="5.09" transform="translate(277.5 628.71) rotate(180)" style="fill:#fff"></rect><rect x="123.07" y="321.19" width="31.36" height="5.09" transform="translate(277.5 647.46) rotate(180)" style="fill:#fff"></rect><rect x="123.07" y="330.56" width="31.36" height="5.09" transform="translate(277.5 666.21) rotate(180)" style="fill:#fff"></rect><rect x="123.07" y="339.94" width="31.36" height="5.08" transform="translate(277.5 684.96) rotate(180)" style="fill:#fff"></rect><rect x="72.37" y="245.29" width="33.13" height="5.08" transform="translate(177.86 495.66) rotate(180)" style="fill:#fff"></rect><rect x="72.37" y="255.15" width="33.13" height="5.09" transform="translate(177.86 515.39) rotate(180)" style="fill:#fff"></rect><rect x="72.37" y="265.02" width="33.13" height="5.08" transform="translate(177.86 535.13) rotate(180)" style="fill:#fff"></rect><rect x="72.37" y="274.89" width="33.13" height="5.09" transform="translate(177.86 554.86) rotate(180)" style="fill:#fff"></rect><rect x="72.37" y="284.75" width="33.13" height="5.09" transform="translate(177.86 574.59) rotate(180)" style="fill:#fff"></rect><rect x="72.37" y="294.62" width="33.13" height="5.08" transform="translate(177.86 594.33) rotate(180)" style="fill:#fff"></rect><rect x="72.37" y="304.49" width="33.13" height="5.08" transform="translate(177.86 614.06) rotate(180)" style="fill:#fff"></rect><rect x="72.37" y="314.35" width="33.13" height="5.09" transform="translate(177.86 633.79) rotate(180)" style="fill:#fff"></rect><rect x="72.37" y="323.18" width="33.13" height="5.09" transform="translate(177.86 651.45) rotate(180)" style="fill:#fff"></rect><rect x="72.37" y="332.01" width="33.13" height="5.09" transform="translate(177.86 669.12) rotate(180)" style="fill:#fff"></rect><rect x="72.37" y="340.85" width="33.13" height="5.09" transform="translate(177.86 686.78) rotate(180)" style="fill:#fff"></rect><rect x="272" y="286.97" width="10.53" height="4.91" transform="translate(554.53 578.85) rotate(180)" style="fill:#fff"></rect><rect x="272" y="296.5" width="10.53" height="4.91" transform="translate(554.53 597.91) rotate(180)" style="fill:#fff"></rect><rect x="272" y="306.03" width="10.53" height="4.91" transform="translate(554.53 616.96) rotate(180)" style="fill:#fff"></rect><rect x="272" y="315.56" width="10.53" height="4.91" transform="translate(554.53 636.02) rotate(180)" style="fill:#fff"></rect><rect x="272" y="325.08" width="10.53" height="4.91" transform="translate(554.53 655.08) rotate(180)" style="fill:#fff"></rect><rect x="272" y="334.61" width="10.53" height="4.91" transform="translate(554.53 674.13) rotate(180)" style="fill:#fff"></rect><rect x="272" y="344.14" width="10.53" height="4.91" transform="translate(554.53 693.19) rotate(180)" style="fill:#fff"></rect><rect x="272" y="353.67" width="10.53" height="4.91" transform="translate(554.53 712.25) rotate(180)" style="fill:#fff"></rect><rect x="257.66" y="286.97" width="10.53" height="4.91" transform="translate(525.86 578.85) rotate(180)" style="fill:#fff"></rect><rect x="257.66" y="296.5" width="10.53" height="4.91" transform="translate(525.86 597.91) rotate(180)" style="fill:#fff"></rect><rect x="257.66" y="306.03" width="10.53" height="4.91" transform="translate(525.86 616.96) rotate(180)" style="fill:#fff"></rect><rect x="257.66" y="315.56" width="10.53" height="4.91" transform="translate(525.86 636.02) rotate(180)" style="fill:#fff"></rect><rect x="257.66" y="325.08" width="10.53" height="4.91" transform="translate(525.86 655.08) rotate(180)" style="fill:#fff"></rect><rect x="257.66" y="334.61" width="10.53" height="4.91" transform="translate(525.86 674.13) rotate(180)" style="fill:#fff"></rect><rect x="257.66" y="344.14" width="10.53" height="4.91" transform="translate(525.86 693.19) rotate(180)" style="fill:#fff"></rect><rect x="257.66" y="353.67" width="10.53" height="4.91" transform="translate(525.86 712.25) rotate(180)" style="fill:#fff"></rect><rect x="340.53" y="190.61" width="10.97" height="7.74" transform="translate(692.03 388.97) rotate(180)" style="fill:#fff"></rect><rect x="324.17" y="190.61" width="10.97" height="7.74" transform="translate(659.31 388.97) rotate(180)" style="fill:#fff"></rect><rect x="340.53" y="201.99" width="10.97" height="7.74" transform="translate(692.03 411.72) rotate(180)" style="fill:#fff"></rect><rect x="324.17" y="201.99" width="10.97" height="7.74" transform="translate(659.31 411.72) rotate(180)" style="fill:#fff"></rect><rect x="340.53" y="213.37" width="10.97" height="7.74" transform="translate(692.03 434.48) rotate(180)" style="fill:#fff"></rect><rect x="324.17" y="213.37" width="10.97" height="7.74" transform="translate(659.31 434.48) rotate(180)" style="fill:#fff"></rect><rect x="340.53" y="224.74" width="10.97" height="7.74" transform="translate(692.03 457.23) rotate(180)" style="fill:#fff"></rect><rect x="324.17" y="224.74" width="10.97" height="7.74" transform="translate(659.31 457.23) rotate(180)" style="fill:#fff"></rect><rect x="340.53" y="236.12" width="10.97" height="7.74" transform="translate(692.03 479.98) rotate(180)" style="fill:#fff"></rect><rect x="324.17" y="236.12" width="10.97" height="7.74" transform="translate(659.31 479.98) rotate(180)" style="fill:#fff"></rect><rect x="340.53" y="247.49" width="10.97" height="7.74" transform="translate(692.03 502.73) rotate(180)" style="fill:#fff"></rect><rect x="324.17" y="247.49" width="10.97" height="7.74" transform="translate(659.31 502.73) rotate(180)" style="fill:#fff"></rect><rect x="340.53" y="258.87" width="10.97" height="7.74" transform="translate(692.03 525.49) rotate(180)" style="fill:#fff"></rect><rect x="324.17" y="258.87" width="10.97" height="7.74" transform="translate(659.31 525.49) rotate(180)" style="fill:#fff"></rect><rect x="340.53" y="270.25" width="10.97" height="7.74" transform="translate(692.03 548.24) rotate(180)" style="fill:#fff"></rect><rect x="324.17" y="270.25" width="10.97" height="7.74" transform="translate(659.31 548.24) rotate(180)" style="fill:#fff"></rect><rect x="303.89" y="274.37" width="10.97" height="7.74" transform="translate(618.76 556.49) rotate(180)" style="fill:#fff"></rect><rect x="303.89" y="285.75" width="10.97" height="7.74" transform="translate(618.76 579.24) rotate(180)" style="fill:#fff"></rect><rect x="303.89" y="297.13" width="10.97" height="7.74" transform="translate(618.76 602) rotate(180)" style="fill:#fff"></rect><rect x="303.89" y="308.5" width="10.97" height="7.74" transform="translate(618.76 624.75) rotate(180)" style="fill:#fff"></rect><rect x="303.89" y="319.88" width="10.97" height="7.74" transform="translate(618.76 647.5) rotate(180)" style="fill:#fff"></rect><rect x="303.89" y="331.25" width="10.97" height="7.74" transform="translate(618.76 670.25) rotate(180)" style="fill:#fff"></rect><rect x="340.53" y="281.49" width="10.97" height="7.74" transform="translate(692.03 570.72) rotate(180)" style="fill:#fff"></rect><rect x="324.17" y="281.49" width="10.97" height="7.74" transform="translate(659.31 570.72) rotate(180)" style="fill:#fff"></rect><rect x="303.89" y="342.5" width="10.97" height="7.74" transform="translate(618.76 692.73) rotate(180)" style="fill:#fff"></rect><rect x="340.53" y="292.73" width="10.97" height="7.74" transform="translate(692.03 593.2) rotate(180)" style="fill:#fff"></rect><rect x="324.17" y="292.73" width="10.97" height="7.74" transform="translate(659.31 593.2) rotate(180)" style="fill:#fff"></rect><rect x="303.89" y="353.74" width="10.97" height="7.74" transform="translate(618.76 715.22) rotate(180)" style="fill:#fff"></rect><rect x="340.53" y="303.97" width="10.97" height="7.74" transform="translate(692.03 615.68) rotate(180)" style="fill:#fff"></rect><rect x="324.17" y="303.97" width="10.97" height="7.74" transform="translate(659.31 615.68) rotate(180)" style="fill:#fff"></rect><rect x="303.89" y="364.98" width="10.97" height="7.74" transform="translate(618.76 737.7) rotate(180)" style="fill:#fff"></rect><rect x="340.53" y="315.21" width="10.97" height="7.74" transform="translate(692.03 638.16) rotate(180)" style="fill:#fff"></rect><rect x="324.17" y="315.21" width="10.97" height="7.74" transform="translate(659.31 638.16) rotate(180)" style="fill:#fff"></rect><rect x="340.53" y="326.45" width="10.97" height="7.74" transform="translate(692.03 660.64) rotate(180)" style="fill:#fff"></rect><rect x="324.17" y="326.45" width="10.97" height="7.74" transform="translate(659.31 660.64) rotate(180)" style="fill:#fff"></rect><rect x="204.78" y="262.67" width="5.92" height="6.78" transform="translate(415.48 532.13) rotate(180)" style="fill:#fff"></rect><rect x="194.51" y="262.67" width="5.92" height="6.78" transform="translate(394.94 532.13) rotate(180)" style="fill:#fff"></rect><rect x="204.78" y="272.88" width="5.92" height="6.78" transform="translate(415.48 552.54) rotate(180)" style="fill:#fff"></rect><rect x="194.51" y="272.88" width="5.92" height="6.78" transform="translate(394.94 552.54) rotate(180)" style="fill:#fff"></rect><rect x="204.78" y="283.09" width="5.92" height="6.78" transform="translate(415.48 572.96) rotate(180)" style="fill:#fff"></rect><rect x="194.51" y="283.09" width="5.92" height="6.78" transform="translate(394.94 572.96) rotate(180)" style="fill:#fff"></rect><rect x="204.78" y="293.29" width="5.92" height="6.78" transform="translate(415.48 593.37) rotate(180)" style="fill:#fff"></rect><rect x="194.51" y="293.29" width="5.92" height="6.78" transform="translate(394.94 593.37) rotate(180)" style="fill:#fff"></rect><rect x="204.78" y="303.75" width="5.92" height="6.78" transform="translate(415.48 614.29) rotate(180)" style="fill:#fff"></rect><rect x="194.51" y="303.75" width="5.92" height="6.78" transform="translate(394.94 614.29) rotate(180)" style="fill:#fff"></rect><rect x="204.78" y="314.21" width="5.92" height="6.78" transform="translate(415.48 635.2) rotate(180)" style="fill:#fff"></rect><rect x="194.51" y="314.21" width="5.92" height="6.78" transform="translate(394.94 635.2) rotate(180)" style="fill:#fff"></rect><rect x="204.78" y="324.67" width="5.92" height="6.78" transform="translate(415.48 656.12) rotate(180)" style="fill:#fff"></rect><rect x="194.51" y="324.67" width="5.92" height="6.78" transform="translate(394.94 656.12) rotate(180)" style="fill:#fff"></rect><rect x="204.78" y="335.13" width="5.92" height="6.78" transform="translate(415.48 677.04) rotate(180)" style="fill:#fff"></rect><rect x="194.51" y="335.13" width="5.92" height="6.78" transform="translate(394.94 677.04) rotate(180)" style="fill:#fff"></rect><rect x="204.78" y="345.7" width="5.92" height="6.78" transform="translate(415.48 698.18) rotate(180)" style="fill:#fff"></rect><rect x="194.51" y="345.7" width="5.92" height="6.78" transform="translate(394.94 698.18) rotate(180)" style="fill:#fff"></rect><rect x="204.78" y="356.27" width="5.92" height="6.78" transform="translate(415.48 719.32) rotate(180)" style="fill:#fff"></rect><rect x="194.51" y="356.27" width="5.92" height="6.78" transform="translate(394.94 719.32) rotate(180)" style="fill:#fff"></rect><rect x="204.78" y="366.84" width="5.92" height="6.78" transform="translate(415.48 740.46) rotate(180)" style="fill:#fff"></rect><rect x="194.51" y="366.84" width="5.92" height="6.78" transform="translate(394.94 740.46) rotate(180)" style="fill:#fff"></rect><rect x="60.1" y="202.77" width="5.92" height="7.99" transform="translate(126.12 413.53) rotate(180)" style="fill:#fff"></rect><rect x="49.83" y="202.77" width="5.93" height="7.99" transform="translate(105.58 413.53) rotate(180)" style="fill:#fff"></rect><rect x="60.1" y="214.79" width="5.92" height="7.99" transform="translate(126.12 437.58) rotate(180)" style="fill:#fff"></rect><rect x="49.83" y="214.79" width="5.93" height="7.99" transform="translate(105.58 437.58) rotate(180)" style="fill:#fff"></rect><rect x="60.1" y="226.82" width="5.92" height="7.99" transform="translate(126.12 461.63) rotate(180)" style="fill:#fff"></rect><rect x="49.83" y="226.82" width="5.93" height="7.99" transform="translate(105.58 461.63) rotate(180)" style="fill:#fff"></rect><rect x="60.1" y="238.84" width="5.92" height="7.99" transform="translate(126.12 485.67) rotate(180)" style="fill:#fff"></rect><rect x="49.83" y="238.84" width="5.93" height="7.99" transform="translate(105.58 485.67) rotate(180)" style="fill:#fff"></rect><rect x="60.1" y="251.16" width="5.92" height="7.99" transform="translate(126.12 510.32) rotate(180)" style="fill:#fff"></rect><rect x="49.83" y="251.16" width="5.93" height="7.99" transform="translate(105.58 510.32) rotate(180)" style="fill:#fff"></rect><rect x="60.1" y="263.49" width="5.92" height="7.99" transform="translate(126.12 534.96) rotate(180)" style="fill:#fff"></rect><rect x="49.83" y="263.49" width="5.93" height="7.99" transform="translate(105.58 534.96) rotate(180)" style="fill:#fff"></rect><rect x="60.1" y="275.81" width="5.92" height="7.99" transform="translate(126.12 559.61) rotate(180)" style="fill:#fff"></rect><rect x="49.83" y="275.81" width="5.93" height="7.99" transform="translate(105.58 559.61) rotate(180)" style="fill:#fff"></rect><rect x="60.1" y="288.13" width="5.92" height="7.99" transform="translate(126.12 584.25) rotate(180)" style="fill:#fff"></rect><rect x="49.83" y="288.13" width="5.93" height="7.99" transform="translate(105.58 584.25) rotate(180)" style="fill:#fff"></rect><rect x="60.1" y="300.58" width="5.92" height="7.99" transform="translate(126.12 609.15) rotate(180)" style="fill:#fff"></rect><rect x="49.83" y="300.58" width="5.93" height="7.99" transform="translate(105.58 609.15) rotate(180)" style="fill:#fff"></rect><rect x="60.1" y="313.03" width="5.92" height="7.99" transform="translate(126.12 634.06) rotate(180)" style="fill:#fff"></rect><rect x="49.83" y="313.03" width="5.93" height="7.99" transform="translate(105.58 634.06) rotate(180)" style="fill:#fff"></rect><rect x="60.1" y="325.49" width="5.92" height="7.99" transform="translate(126.12 658.97) rotate(180)" style="fill:#fff"></rect><rect x="49.83" y="325.49" width="5.93" height="7.99" transform="translate(105.58 658.97) rotate(180)" style="fill:#fff"></rect><rect x="60.1" y="337.94" width="5.92" height="7.99" transform="translate(126.12 683.87) rotate(180)" style="fill:#fff"></rect><rect x="49.83" y="337.94" width="5.93" height="7.99" transform="translate(105.58 683.87) rotate(180)" style="fill:#fff"></rect><rect x="182.82" y="262.67" width="5.92" height="6.78" transform="translate(371.56 532.13) rotate(180)" style="fill:#fff"></rect><rect x="172.55" y="262.67" width="5.92" height="6.78" transform="translate(351.02 532.13) rotate(180)" style="fill:#fff"></rect><rect x="182.82" y="252.21" width="5.92" height="6.78" transform="translate(371.56 511.2) rotate(180)" style="fill:#fff"></rect><rect x="172.55" y="252.21" width="5.92" height="6.78" transform="translate(351.02 511.2) rotate(180)" style="fill:#fff"></rect><rect x="182.82" y="241.74" width="5.92" height="6.78" transform="translate(371.56 490.27) rotate(180)" style="fill:#fff"></rect><rect x="172.55" y="241.74" width="5.92" height="6.78" transform="translate(351.02 490.27) rotate(180)" style="fill:#fff"></rect><rect x="182.82" y="272.88" width="5.92" height="6.78" transform="translate(371.56 552.54) rotate(180)" style="fill:#fff"></rect><rect x="172.55" y="272.88" width="5.92" height="6.78" transform="translate(351.02 552.54) rotate(180)" style="fill:#fff"></rect><rect x="182.82" y="283.09" width="5.92" height="6.78" transform="translate(371.56 572.96) rotate(180)" style="fill:#fff"></rect><rect x="172.55" y="283.09" width="5.92" height="6.78" transform="translate(351.02 572.96) rotate(180)" style="fill:#fff"></rect><rect x="182.82" y="293.29" width="5.92" height="6.78" transform="translate(371.56 593.37) rotate(180)" style="fill:#fff"></rect><rect x="172.55" y="293.29" width="5.92" height="6.78" transform="translate(351.02 593.37) rotate(180)" style="fill:#fff"></rect><rect x="182.82" y="303.75" width="5.92" height="6.78" transform="translate(371.56 614.29) rotate(180)" style="fill:#fff"></rect><rect x="172.55" y="303.75" width="5.92" height="6.78" transform="translate(351.02 614.29) rotate(180)" style="fill:#fff"></rect><rect x="182.82" y="314.21" width="5.92" height="6.78" transform="translate(371.56 635.2) rotate(180)" style="fill:#fff"></rect><rect x="172.55" y="314.21" width="5.92" height="6.78" transform="translate(351.02 635.2) rotate(180)" style="fill:#fff"></rect><rect x="182.82" y="324.67" width="5.92" height="6.78" transform="translate(371.56 656.12) rotate(180)" style="fill:#fff"></rect><rect x="172.55" y="324.67" width="5.92" height="6.78" transform="translate(351.02 656.12) rotate(180)" style="fill:#fff"></rect><rect x="182.82" y="335.13" width="5.92" height="6.78" transform="translate(371.56 677.04) rotate(180)" style="fill:#fff"></rect><rect x="172.55" y="335.13" width="5.92" height="6.78" transform="translate(351.02 677.04) rotate(180)" style="fill:#fff"></rect><rect x="182.82" y="345.7" width="5.92" height="6.78" transform="translate(371.56 698.18) rotate(180)" style="fill:#fff"></rect><rect x="172.55" y="345.7" width="5.92" height="6.78" transform="translate(351.02 698.18) rotate(180)" style="fill:#fff"></rect><rect x="182.82" y="356.27" width="5.92" height="6.78" transform="translate(371.56 719.32) rotate(180)" style="fill:#fff"></rect><rect x="172.55" y="356.27" width="5.92" height="6.78" transform="translate(351.02 719.32) rotate(180)" style="fill:#fff"></rect><rect x="182.82" y="366.84" width="5.92" height="6.78" transform="translate(371.56 740.46) rotate(180)" style="fill:#fff"></rect><rect x="172.55" y="366.84" width="5.92" height="6.78" transform="translate(351.02 740.46) rotate(180)" style="fill:#fff"></rect></g><g id="freepik--Shadow--inject-500"><ellipse cx="250" cy="447.18" rx="208.31" ry="22.04" style="fill:#ebebeb"></ellipse></g><g id="freepik--Floor--inject-500"><rect x="41.36" y="382.91" width="417.27" height="7.27" style="fill:#c7c7c7"></rect><path d="M70.62,382.91a13.73,13.73,0,0,1,0,7.27,12,12,0,0,1-.5-3.64A12.28,12.28,0,0,1,70.62,382.91Z" style="fill:#263238"></path><path d="M103.23,382.91a12.28,12.28,0,0,1,.5,3.63,12,12,0,0,1-.5,3.64,13.73,13.73,0,0,1,0-7.27Z" style="fill:#263238"></path><path d="M135.85,382.91a13.73,13.73,0,0,1,0,7.27,12,12,0,0,1-.5-3.64A12.28,12.28,0,0,1,135.85,382.91Z" style="fill:#263238"></path><path d="M168.46,382.91a12.28,12.28,0,0,1,.5,3.63,12,12,0,0,1-.5,3.64,13.73,13.73,0,0,1,0-7.27Z" style="fill:#263238"></path><path d="M201.08,382.91a13.73,13.73,0,0,1,0,7.27,12,12,0,0,1-.5-3.64A12.28,12.28,0,0,1,201.08,382.91Z" style="fill:#263238"></path><path d="M233.69,382.91a12.28,12.28,0,0,1,.5,3.63,12,12,0,0,1-.5,3.64,13.73,13.73,0,0,1,0-7.27Z" style="fill:#263238"></path><path d="M266.31,382.91a13.73,13.73,0,0,1,0,7.27,12,12,0,0,1-.5-3.64A12.28,12.28,0,0,1,266.31,382.91Z" style="fill:#263238"></path><path d="M298.92,382.91a12.28,12.28,0,0,1,.5,3.63,12,12,0,0,1-.5,3.64,13.73,13.73,0,0,1,0-7.27Z" style="fill:#263238"></path><path d="M331.54,382.91a13.73,13.73,0,0,1,0,7.27,12,12,0,0,1-.5-3.64A12.28,12.28,0,0,1,331.54,382.91Z" style="fill:#263238"></path><path d="M364.15,382.91a12.28,12.28,0,0,1,.5,3.63,12,12,0,0,1-.5,3.64,13.73,13.73,0,0,1,0-7.27Z" style="fill:#263238"></path><path d="M396.77,382.91a13.73,13.73,0,0,1,0,7.27,12,12,0,0,1-.5-3.64A12.28,12.28,0,0,1,396.77,382.91Z" style="fill:#263238"></path><path d="M429.38,382.91a12.28,12.28,0,0,1,.5,3.63,12,12,0,0,1-.5,3.64,13.73,13.73,0,0,1,0-7.27Z" style="fill:#263238"></path><polygon points="41.36 390.18 93.52 389.94 145.68 389.85 250 389.68 354.32 389.85 406.48 389.93 458.64 390.18 406.48 390.42 354.32 390.51 250 390.68 145.68 390.51 93.52 390.42 41.36 390.18" style="fill:#263238"></polygon></g><g id="freepik--Plant--inject-500"><path d="M420.68,317.48c5.49-11.28,15.1-17.08,25.92-13.88s12.5,18.3,4.42,22.11-16.16-7.32-20.43-9.6S420.68,317.48,420.68,317.48Z" style="fill:#FFC727"></path><path d="M415.37,347.51c0-1.36.08-2.72.13-4.08.1-2.72.19-5.43.29-8.15.18-5,.72-9.84,2.78-14.42a22.32,22.32,0,0,1,8.7-10,18.17,18.17,0,0,1,4.58-2,10.74,10.74,0,0,1,5.34-2.94,21.85,21.85,0,0,1,7.61-.19c.09,0,.09.15,0,.14a18.41,18.41,0,0,0-7.2.52,14.5,14.5,0,0,0-2.91,1.13,13.1,13.1,0,0,0-1.67,1.06,14.66,14.66,0,0,1,8.91.82,6.85,6.85,0,0,1,1.8-.15,10.82,10.82,0,0,1,2.34.33,17.88,17.88,0,0,1,4.46,1.95c.08,0,0,.16-.08.12a16.88,16.88,0,0,0-4.34-1.64,15.31,15.31,0,0,0-2.24-.33c-.41,0-.83,0-1.24,0a14.4,14.4,0,0,1,7,7c0,.08-.09.15-.13.07a13.12,13.12,0,0,0-8.92-7.15c-.24-.06-.48-.1-.72-.14a10.32,10.32,0,0,1,.11,1.09c.08.55.17,1.09.28,1.64a29.18,29.18,0,0,0,.88,3.3,26.2,26.2,0,0,0,1.31,3.2,15.25,15.25,0,0,0,1.83,3.09.07.07,0,1,1-.11.08c-.65-1-1.41-2-2-3a21.47,21.47,0,0,1-1.47-3.15,22.1,22.1,0,0,1-1-3.38c-.11-.61-.21-1.22-.28-1.84a4.2,4.2,0,0,1-.07-1.12,15,15,0,0,0-3.84-.08c.48,2.69,1,5.5,2.5,7.84.05.07-.08.15-.12.07a31,31,0,0,1-1.86-3.85,14.62,14.62,0,0,1-.93-4,17.79,17.79,0,0,0-6.36,2.13,21.07,21.07,0,0,0-8.46,9.26A34.86,34.86,0,0,0,417.17,334c-.36,5.77-.44,11.57-1,17.32,0,.37-.64.5-.71.08A19.93,19.93,0,0,1,415.37,347.51Z" style="fill:#263238"></path><path d="M428.06,309.93a6.51,6.51,0,0,1,1.24-1.16c.45-.37.91-.73,1.4-1.06a10.25,10.25,0,0,1,3.11-1.44c.09,0,.13.12,0,.14a8.21,8.21,0,0,0-3.08,1.51c-.46.34-.9.7-1.33,1.07a7.14,7.14,0,0,1-1.26,1.07A.09.09,0,0,1,428.06,309.93Z" style="fill:#263238"></path><path d="M445.57,314a35.06,35.06,0,0,1,2.52,3.33,20.89,20.89,0,0,1,1.87,3.72s0,.06-.06,0a45.15,45.15,0,0,0-4.43-7C445.41,314,445.51,313.94,445.57,314Z" style="fill:#263238"></path><path d="M433.76,312.9a8.59,8.59,0,0,0,.62,2,14.2,14.2,0,0,0,1.05,1.81,0,0,0,0,1-.06,0,7.26,7.26,0,0,1-1.74-3.86C433.61,312.84,433.75,312.81,433.76,312.9Z" style="fill:#263238"></path><path d="M416.14,317.76s-7.77-9.77-22.77-6.31c-14.26,3.29-20.84,29.43-6.43,32.56S398.8,323,404.05,318.84C407.91,315.83,413.44,316.48,416.14,317.76Z" style="fill:#FFC727"></path><path d="M381.78,325.73a29.43,29.43,0,0,1,3.09-2.37,13.59,13.59,0,0,1,3.3-1.65,20.56,20.56,0,0,1,1.95-2.51,19.41,19.41,0,0,1,4.54-3.61l-.45,0a23.82,23.82,0,0,0-2.39,0,13.21,13.21,0,0,0-4.62,1.16c-.09,0-.15-.1-.07-.13a21.33,21.33,0,0,1,4.63-1.4,13,13,0,0,1,2.34-.2c.42,0,.84,0,1.26.08h.24a20.53,20.53,0,0,1,4.32-1.59l-.41-.11a18.82,18.82,0,0,0-2.23-.36,17.31,17.31,0,0,0-4.49.07.08.08,0,0,1,0-.15,28.61,28.61,0,0,1,4.53-.18,19.48,19.48,0,0,1,3.78.49,20.73,20.73,0,0,1,2.73-.31c5.23-.22,10.93,1.73,14.15,6s3.85,10,4.42,15.23A115.13,115.13,0,0,1,423,356c0,.43-.64.35-.65,0-.2-6.17-.42-12.33-1-18.48-.27-2.84-.57-5.69-1.05-8.51a25.2,25.2,0,0,0-2.06-7,12.92,12.92,0,0,0-5.07-5.44,17.07,17.07,0,0,0-7.17-2.21,19.55,19.55,0,0,0-6.73.63,4.24,4.24,0,0,1,0,1.33,7,7,0,0,1-.33,1.64,8.89,8.89,0,0,1-.62,1.46c-.28.51-.63,1-.94,1.46-.05.08-.17,0-.12-.08a6.83,6.83,0,0,0,1.17-3,12.79,12.79,0,0,0,.18-1.53c0-.38,0-.77,0-1.16a20,20,0,0,0-6.55,3.46c-.36.29-.72.6-1.06.92a7.18,7.18,0,0,1,1.27,1.56,15.45,15.45,0,0,1,1.34,2.38,20,20,0,0,1,1.38,5.22c0,.09-.13.11-.14,0a15,15,0,0,0-1.7-4.94,20.41,20.41,0,0,0-1.33-2.2c-.26-.36-.52-.72-.79-1.06-.15-.19-.31-.38-.45-.58a20.73,20.73,0,0,0-4.25,6l0,0a9.88,9.88,0,0,1,1.75,2.52,24.09,24.09,0,0,1,1.41,3,50.4,50.4,0,0,1,1.79,6.12.07.07,0,1,1-.14,0,25.84,25.84,0,0,0-2.13-6c-.45-.94-.92-1.86-1.42-2.78a26.43,26.43,0,0,1-1.41-2.62,19.25,19.25,0,0,0-1.71,6.95.07.07,0,1,1-.14,0,24.39,24.39,0,0,1,3.36-10.66c-.91.39-1.83.77-2.72,1.25a15,15,0,0,0-3.12,2.19C381.81,325.9,381.71,325.79,381.78,325.73Z" style="fill:#263238"></path><path d="M392.78,326.28c.45,1.48,1,2.92,1.42,4.42a16.82,16.82,0,0,1,.67,4.41s-.07,0-.07,0a42.75,42.75,0,0,0-2.15-8.79A.07.07,0,1,1,392.78,326.28Z" style="fill:#263238"></path><path d="M383.28,322.61a8.21,8.21,0,0,1,2-1.42,14.3,14.3,0,0,1,2.3-.82c.08,0,.11.13,0,.15a8.52,8.52,0,0,0-2.21.91,16.38,16.38,0,0,0-2,1.25A0,0,0,0,1,383.28,322.61Z" style="fill:#263238"></path><path d="M408.75,304.71s-1.43-17.55-14.48-23.23c-10.89-4.75-17.13,7.49-9.43,15C391.07,302.52,401.06,299.79,408.75,304.71Z" style="fill:#FFC727"></path><path d="M387.26,284.88a54.76,54.76,0,0,1,5.8,2.74,45,45,0,0,1,4.5,3c-.21-.44-.4-.91-.62-1.34q-.51-1-1.11-2a18.71,18.71,0,0,0-2.87-3.64c-.07-.06,0-.16.1-.1a29.78,29.78,0,0,1,3,3.52,21.27,21.27,0,0,1,1.23,2,7.74,7.74,0,0,1,.88,2l.15.1a43.8,43.8,0,0,1,6.23,6.1c0-.17-.08-.35-.12-.5-.25-.86-.51-1.71-.79-2.55a21.43,21.43,0,0,0-2.36-5.12c-.05-.08.08-.15.13-.07a43.08,43.08,0,0,1,2.73,5,19.84,19.84,0,0,1,.9,2.59,10.42,10.42,0,0,1,.42,1.77c.57.72,1.13,1.44,1.66,2.19,5.6,8,8.41,17.62,9.08,27.27a85.85,85.85,0,0,1,.15,8.64,53.53,53.53,0,0,1-.77,8.67c0,.19-.32.13-.31-.05.06-2.53.33-5.06.37-7.59s0-5.09-.24-7.62A70.83,70.83,0,0,0,412.58,315a53.26,53.26,0,0,0-6.63-14c-.55-.11-1.09-.26-1.63-.39l-2-.52a19.48,19.48,0,0,1-3.63-1.33.07.07,0,0,1,.07-.13,11.82,11.82,0,0,0,3.69,1.28c1,.2,2.08.33,3.11.57a49.35,49.35,0,0,0-3-4,22.87,22.87,0,0,1-7.42-.55,29.86,29.86,0,0,1-3.8-1.19c-1.3-.5-2.54-1.15-3.83-1.68-.1-.05,0-.19.06-.13a21.82,21.82,0,0,0,7.52,2.46,47.53,47.53,0,0,0,7,.58c-.93-1.06-1.89-2.1-2.91-3.07a34.22,34.22,0,0,0-12-7.83C387.13,285,387.17,284.84,387.26,284.88Z" style="fill:#263238"></path><path d="M397.87,284.93a19.73,19.73,0,0,1,1.6,2.34,12.55,12.55,0,0,1,1.15,2.72s0,.05-.05,0c-.44-.86-.8-1.75-1.24-2.61a12.94,12.94,0,0,0-1.56-2.37C397.71,285,397.81,284.86,397.87,284.93Z" style="fill:#263238"></path><path d="M385.74,290.77a13.68,13.68,0,0,0,2.68,1.12,25.35,25.35,0,0,0,2.72.73s0,.08,0,.08a13.52,13.52,0,0,1-2.82-.62,23.16,23.16,0,0,1-2.64-1.19C385.59,290.85,385.66,290.72,385.74,290.77Z" style="fill:#263238"></path><path d="M418.89,301.55c.08.76,2-6.37,13-12.7,10-5.74,22-20.69,12.16-30.13C436.12,251.09,415.23,267.71,418.89,301.55Z" style="fill:#FFC727"></path><path d="M411.3,342.42a193.81,193.81,0,0,1,1.75-22.18,99.45,99.45,0,0,1,4.66-19.85c.82-2.32,1.76-4.6,2.78-6.84a15.36,15.36,0,0,1,0-2.63c.05-1.12.16-2.24.26-3.36s.22-2.24.35-3.36.37-2.23.42-3.34a.07.07,0,1,1,.14,0,23.38,23.38,0,0,0-.4,3.55c-.08,1.08-.15,2.16-.18,3.25s0,2.17,0,3.25c0,.4,0,.81,0,1.23,1-2.19,2.15-4.35,3.35-6.45-.75-4.57.22-9.35,1.16-13.83,0-.09.15,0,.13.05a39.17,39.17,0,0,0-.72,7.08c0,1.88,0,3.76.05,5.64l.8-1.35c1.43-2.33,3-4.62,4.58-6.84a10.8,10.8,0,0,1,.11-3.26,25.45,25.45,0,0,1,.8-3.56,35.32,35.32,0,0,1,1.22-3.45c.48-1.16,1.11-2.25,1.57-3.42,0-.09.19,0,.13.06a17.59,17.59,0,0,0-1.38,3.46,31.46,31.46,0,0,0-.9,3.43c-.23,1.16-.42,2.33-.59,3.5-.1.78-.17,1.58-.31,2.36a84.86,84.86,0,0,1,7.73-9c.06-.07.16,0,.09.1A102.19,102.19,0,0,0,427.74,282l-.35.61c.6-.38,1.3-.68,1.87-1,1.07-.6,2.14-1.19,3.22-1.77s2.09-1.13,3.12-1.71c.54-.29,1.07-.6,1.61-.88a13.12,13.12,0,0,0,1.87-1c.08-.06.17.07.08.12-1.06.58-2,1.45-3,2.1s-2.08,1.29-3.15,1.89c-2,1.09-4.09,1.88-6,3-1.34,2.35-2.57,4.75-3.71,7.2,1.17-.75,2.37-1.46,3.58-2.14.78-.44,1.57-.87,2.36-1.29a11.92,11.92,0,0,0,2.22-1.34c.07-.06.17,0,.1.1a21.16,21.16,0,0,1-4.24,2.95c-1.42.83-2.85,1.63-4.32,2.35-1.18,2.58-2.25,5.22-3.19,7.89-4.65,13.15-6.35,27.1-7.17,41-.24,4.13-.36,8.26-.42,12.4s.17,8.26.16,12.39c0,.12-.2.15-.22,0-.49-3.67-.58-7.39-.74-11.08S411.22,346.18,411.3,342.42Z" style="fill:#263238"></path><path d="M431.34,282.91a52.39,52.39,0,0,0,5.86-3,60.66,60.66,0,0,0,5.56-3.53s.07,0,0,0a46.05,46.05,0,0,1-5.34,3.74,54.16,54.16,0,0,1-6,2.9C431.32,283.07,431.25,283,431.34,282.91Z" style="fill:#263238"></path><path d="M428.14,268.05c.17-.64.37-1.27.58-1.9a0,0,0,0,1,0-.07c.14-.35.28-.71.43-1.06,0,0,0-.09.05-.13s.05-.13.08-.2.05,0,0,0-.07.25-.11.37a1.52,1.52,0,0,1-.06.2,51.81,51.81,0,0,0-1.63,7.49c0,.08-.14.08-.13,0A24.89,24.89,0,0,1,428.14,268.05Z" style="fill:#263238"></path><polygon points="399.65 345.09 400.43 354.42 402.84 382.87 428.65 382.87 431.06 354.42 431.85 345.09 399.65 345.09" style="fill:#455a64"></polygon><polygon points="399.65 345.09 400.43 354.42 431.06 354.42 431.85 345.09 399.65 345.09" style="fill:#263238"></polygon><rect x="397.11" y="341.34" width="37.27" height="8.95" transform="translate(831.49 691.64) rotate(180)" style="fill:#455a64"></rect></g><g id="freepik--Device--inject-500"><rect x="127.56" y="59.66" width="245.05" height="366.46" rx="10.21" style="fill:#455a64"></rect><rect x="138.03" y="85.54" width="224.23" height="315.42" style="fill:#fff"></rect><rect x="248.1" y="48.09" width="3.81" height="53.36" rx="1.25" transform="translate(324.77 -175.24) rotate(90)" style="fill:#37474f"></rect><path d="M250,421.68a6.91,6.91,0,1,1,6.9-6.91A6.91,6.91,0,0,1,250,421.68Z" style="fill:#37474f"></path></g><g id="freepik--Rocket--inject-500"><path d="M172.51,366.16a5.83,5.83,0,1,1-5.83-5.83A5.83,5.83,0,0,1,172.51,366.16Z" style="fill:#FFC727;opacity:0.6000000000000001"></path><path d="M179.59,355a2.84,2.84,0,1,1-2.84-2.84A2.84,2.84,0,0,1,179.59,355Z" style="fill:#FFC727;opacity:0.6000000000000001"></path><path d="M304.28,363.34a2.84,2.84,0,1,1-2.84-2.84A2.84,2.84,0,0,1,304.28,363.34Z" style="fill:#FFC727;opacity:0.6000000000000001"></path><path d="M361.15,389.27a2.84,2.84,0,1,1-2.84-2.84A2.84,2.84,0,0,1,361.15,389.27Z" style="fill:#FFC727;opacity:0.6000000000000001"></path><path d="M356.8,397.57a3.39,3.39,0,0,1-3.39,3.39H142.25a3.39,3.39,0,1,1,0-6.77,3.57,3.57,0,0,1,.8.09,6.68,6.68,0,0,1,11.45-4.66l.06,0c0-.41-.06-.83-.06-1.25A12.62,12.62,0,0,1,172.66,377,9,9,0,0,1,190,374.29a12.57,12.57,0,0,1,10.67-5.9,13.58,13.58,0,0,1,2.41.23,16.63,16.63,0,0,1-.26-2.93,17.06,17.06,0,0,1,28.2-12.93,3.39,3.39,0,0,1,3-1.84,3.5,3.5,0,0,1,1.3.26l3.17-126.63h18.6l3.17,126.63a3.5,3.5,0,0,1,1.3-.26,3.4,3.4,0,0,1,3,1.84,17.06,17.06,0,0,1,28.2,12.93,16.63,16.63,0,0,1-.26,2.93,13.58,13.58,0,0,1,2.41-.23,12.58,12.58,0,0,1,10.67,5.9A9,9,0,0,1,323,377a12.62,12.62,0,0,1,18.16,11.32c0,.42,0,.84-.06,1.25l.06,0a6.68,6.68,0,0,1,11.45,4.66,3.5,3.5,0,0,1,.8-.09A3.39,3.39,0,0,1,356.8,397.57Z" style="fill:#FFC727;opacity:0.6000000000000001"></path><path d="M214.17,144.23l-35.49,38.7s35.52,81.24,35.49,81.8l-5-67.68,11-11.33Z" style="fill:#FFC727"></path><path d="M214.17,144.23l-35.49,38.7s35.52,81.24,35.49,81.8l-5-67.68,11-11.33Z" style="opacity:0.1"></path><polygon points="220.09 185.71 212.6 193.46 198.41 161.4 214.17 144.22 220.09 185.71" style="opacity:0.1"></polygon><path d="M281.75,144.23l35.49,38.7s-35.53,81.24-35.49,81.8l5.05-67.68-11-11.33Z" style="fill:#FFC727"></path><path d="M281.75,144.23l35.49,38.7s-35.53,81.24-35.49,81.8l5.05-67.68-11-11.33Z" style="opacity:0.1"></path><polygon points="275.82 185.71 283.32 193.46 297.51 161.4 281.75 144.22 275.82 185.71" style="opacity:0.1"></polygon><path d="M268.49,212.19l-41.16,0s-19.39-34.66-17.09-76c1.16-20.63,6.55-41.4,13-58.59C232.21,53.83,243.25,37,248,37s15.8,16.85,24.71,40.61c6.45,17.19,11.81,38,12.94,58.61C287.92,177.55,268.49,212.19,268.49,212.19Z" style="fill:#ebebeb"></path><path d="M272.6,130.87a23.74,23.74,0,1,1-23.72-23.75A23.72,23.72,0,0,1,272.6,130.87Z" style="opacity:0.2"></path><path d="M271.76,128.45A23.74,23.74,0,1,1,248,104.7,23.74,23.74,0,0,1,271.76,128.45Z" style="fill:#FFC727"></path><path d="M271.76,128.45A23.74,23.74,0,1,1,248,104.7,23.74,23.74,0,0,1,271.76,128.45Z" style="opacity:0.1"></path><path d="M264.48,128.43A16.46,16.46,0,1,1,248,112,16.46,16.46,0,0,1,264.48,128.43Z" style="fill:#455a64"></path><g style="opacity:0.4"><path d="M264.49,128.43a16.45,16.45,0,0,1-1.12,6L254,143.78a16.36,16.36,0,0,1-6,1.11,16,16,0,0,1-4.4-.61L263.88,124A16.35,16.35,0,0,1,264.49,128.43Z" style="fill:#fff"></path><path d="M250.44,112.15l-18.7,18.7a17.53,17.53,0,0,1-.18-2.41A16.47,16.47,0,0,1,248,112,17.41,17.41,0,0,1,250.44,112.15Z" style="fill:#fff"></path><path d="M262.43,120.46l-22.37,22.37a12.48,12.48,0,0,1-1.26-.77l22.85-22.86C261.93,119.6,262.18,120,262.43,120.46Z" style="fill:#fff"></path></g><path d="M272.75,77.61l-49.47,0C232.21,53.83,243.25,37,248,37S263.84,53.85,272.75,77.61Z" style="fill:#FFC727"></path><g style="opacity:0.1"><path d="M231.8,72.47a1.39,1.39,0,1,1-1.39-1.39A1.38,1.38,0,0,1,231.8,72.47Z"></path><path d="M240.6,72.47a1.39,1.39,0,1,1-1.38-1.38A1.39,1.39,0,0,1,240.6,72.47Z"></path><path d="M249.4,72.48A1.38,1.38,0,0,1,248,73.87a1.39,1.39,0,1,1,1.38-1.39Z"></path><path d="M258.2,72.49a1.39,1.39,0,1,1-1.38-1.39A1.38,1.38,0,0,1,258.2,72.49Z"></path><path d="M267,72.49a1.39,1.39,0,1,1-1.38-1.38A1.38,1.38,0,0,1,267,72.49Z"></path></g><path d="M231.74,205.84a1.39,1.39,0,1,1-1.38-1.39A1.38,1.38,0,0,1,231.74,205.84Z" style="fill:#FFC727"></path><path d="M240.54,205.84a1.39,1.39,0,1,1-1.38-1.38A1.38,1.38,0,0,1,240.54,205.84Z" style="fill:#FFC727"></path><path d="M249.34,205.85a1.39,1.39,0,1,1-1.38-1.39A1.38,1.38,0,0,1,249.34,205.85Z" style="fill:#FFC727"></path><path d="M258.15,205.85a1.39,1.39,0,1,1-1.39-1.38A1.39,1.39,0,0,1,258.15,205.85Z" style="fill:#FFC727"></path><path d="M267,205.86a1.39,1.39,0,1,1-2.77,0,1.37,1.37,0,0,1,1.38-1.38A1.38,1.38,0,0,1,267,205.86Z" style="fill:#FFC727"></path><polygon points="264.69 224.56 231.22 224.54 229.66 212.17 266.27 212.2 264.69 224.56" style="fill:#FFC727"></polygon><polygon points="264.69 224.56 231.22 224.54 229.66 212.17 266.27 212.2 264.69 224.56" style="opacity:0.1"></polygon><polygon points="266.27 212.2 265.49 218.22 230.25 216.9 229.66 212.17 266.27 212.2" style="opacity:0.1"></polygon><polygon points="300.31 371.43 296.16 372.2 295.23 376.57 294.3 372.2 290.16 371.43 294.29 370.42 295.23 366.29 296.18 370.42 300.31 371.43" style="fill:#fcfcfc"></polygon><polygon points="259.96 336.37 255.81 337.13 254.89 341.51 253.96 337.13 249.81 336.37 253.94 335.36 254.89 331.23 255.83 335.36 259.96 336.37" style="fill:#fcfcfc"></polygon><polygon points="246.08 232.38 241.93 233.15 241 237.52 240.07 233.15 235.93 232.38 240.06 231.37 241 227.24 241.95 231.37 246.08 232.38" style="fill:#fcfcfc"></polygon><polygon points="199.68 379.76 197.37 380.19 196.85 382.63 196.33 380.19 194.01 379.76 196.32 379.19 196.85 376.88 197.38 379.19 199.68 379.76" style="fill:#fcfcfc"></polygon><polygon points="324.42 387.05 322.1 387.48 321.59 389.92 321.07 387.48 318.75 387.05 321.06 386.48 321.59 384.17 322.11 386.48 324.42 387.05" style="fill:#fcfcfc"></polygon><polygon points="167.78 395.61 165.46 396.04 164.94 398.49 164.43 396.04 162.11 395.61 164.41 395.05 164.94 392.74 165.47 395.05 167.78 395.61" style="fill:#fcfcfc"></polygon><polygon points="268.62 393.58 266.3 394.01 265.79 396.45 265.27 394.01 262.95 393.58 265.26 393.01 265.79 390.71 266.31 393.01 268.62 393.58" style="fill:#fcfcfc"></polygon><polygon points="251.65 329.72 249.33 330.15 248.81 332.59 248.29 330.15 245.98 329.72 248.28 329.16 248.81 326.85 249.34 329.16 251.65 329.72" style="fill:#fcfcfc"></polygon><polygon points="257.88 266.44 255.56 266.87 255.04 269.31 254.52 266.87 252.21 266.44 254.51 265.88 255.04 263.57 255.57 265.88 257.88 266.44" style="fill:#fcfcfc"></polygon><path d="M329.91,392.33a.68.68,0,0,0,0,1.35A.68.68,0,0,0,329.91,392.33Z" style="fill:#fcfcfc"></path><path d="M242.68,321.24a.68.68,0,0,0,0,1.35A.68.68,0,0,0,242.68,321.24Z" style="fill:#fcfcfc"></path><path d="M253.87,236.85a.67.67,0,0,0,0,1.34A.67.67,0,0,0,253.87,236.85Z" style="fill:#fcfcfc"></path><path d="M185.34,395.61a.68.68,0,0,0,0,1.35A.68.68,0,0,0,185.34,395.61Z" style="fill:#fcfcfc"></path><path d="M227.93,386.38a.67.67,0,0,0,0,1.34A.67.67,0,0,0,227.93,386.38Z" style="fill:#fcfcfc"></path><path d="M313.07,380.25a.48.48,0,0,0,0,.95A.48.48,0,0,0,313.07,380.25Z" style="fill:#fcfcfc"></path><path d="M254.33,373.12a.48.48,0,0,0,0,.95A.48.48,0,0,0,254.33,373.12Z" style="fill:#fcfcfc"></path><path d="M246,252.53a.48.48,0,0,0,0,.95A.48.48,0,0,0,246,252.53Z" style="fill:#fcfcfc"></path><path d="M211.33,363.83a.48.48,0,0,0,0,.95A.48.48,0,0,0,211.33,363.83Z" style="fill:#fcfcfc"></path><path d="M284.9,365.77a1.29,1.29,0,0,0,0,2.58A1.29,1.29,0,0,0,284.9,365.77Z" style="fill:#fcfcfc"></path><path d="M217.42,359.46a1.29,1.29,0,0,0,0,2.58A1.29,1.29,0,0,0,217.42,359.46Z" style="fill:#fcfcfc"></path><path d="M248.81,281.69a1.29,1.29,0,0,0,0,2.58A1.29,1.29,0,0,0,248.81,281.69Z" style="fill:#fcfcfc"></path></g><g id="freepik--start-button--inject-500"><rect x="206.24" y="337.54" width="87.54" height="26.99" style="fill:#37474f"></rect><path d="M231,347.87a2.77,2.77,0,0,0-.49-.4,4.36,4.36,0,0,0-.75-.39,5.47,5.47,0,0,0-.94-.3,4.55,4.55,0,0,0-1-.12,2.88,2.88,0,0,0-1.76.44,1.44,1.44,0,0,0-.56,1.2,1.33,1.33,0,0,0,.18.72,1.51,1.51,0,0,0,.54.48,4.09,4.09,0,0,0,.93.37c.36.11.79.22,1.29.35a13.3,13.3,0,0,1,1.63.48,4.68,4.68,0,0,1,1.24.66,2.73,2.73,0,0,1,.78.94,3.16,3.16,0,0,1,.27,1.37,3.27,3.27,0,0,1-.34,1.56,2.94,2.94,0,0,1-.94,1.07,4.31,4.31,0,0,1-1.38.6,7.14,7.14,0,0,1-1.7.19,8.21,8.21,0,0,1-2.62-.41,7.26,7.26,0,0,1-2.29-1.2l.85-1.61a4.21,4.21,0,0,0,.63.49,5.36,5.36,0,0,0,1,.49,7.42,7.42,0,0,0,1.18.39,5.24,5.24,0,0,0,1.32.16,3.2,3.2,0,0,0,1.72-.39,1.25,1.25,0,0,0,.6-1.14,1.22,1.22,0,0,0-.23-.75,1.91,1.91,0,0,0-.64-.53,5.38,5.38,0,0,0-1-.41l-1.37-.39a13.66,13.66,0,0,1-1.55-.49,3.83,3.83,0,0,1-1.1-.63,2.75,2.75,0,0,1-.67-.86,2.89,2.89,0,0,1-.22-1.2,3.54,3.54,0,0,1,.33-1.56,3.41,3.41,0,0,1,.92-1.14,3.93,3.93,0,0,1,1.37-.69,5.79,5.79,0,0,1,1.71-.24,6.22,6.22,0,0,1,2.23.39,7.4,7.4,0,0,1,1.79.95Z" style="fill:#fff"></path><path d="M243.55,346.73h-4V357h-1.9V346.73h-4v-1.66h9.83Z" style="fill:#fff"></path><path d="M248.14,345.07h1.65L254.48,357h-2l-1.26-3.24h-4.6L245.41,357h-2Zm2.74,7.28L249,347.23l-2,5.12Z" style="fill:#fff"></path><path d="M256.63,357V345.07h5.19a3.34,3.34,0,0,1,1.48.33,4.09,4.09,0,0,1,1.17.88,4.27,4.27,0,0,1,.76,1.24,3.94,3.94,0,0,1,.28,1.42,4.07,4.07,0,0,1-.17,1.16,4,4,0,0,1-.47,1,3.4,3.4,0,0,1-.74.82,3,3,0,0,1-1,.51L266,357h-2.13l-2.59-4.15h-2.75V357Zm1.88-5.81h3.29a1.6,1.6,0,0,0,.73-.17,1.74,1.74,0,0,0,.56-.49,2.4,2.4,0,0,0,.37-.71,2.71,2.71,0,0,0,.13-.86,2.44,2.44,0,0,0-.58-1.56,2,2,0,0,0-.6-.48,1.65,1.65,0,0,0-.71-.17h-3.19Z" style="fill:#fff"></path><path d="M277,346.73h-4V357h-1.9V346.73h-4v-1.66H277Z" style="fill:#fff"></path><polygon points="290.08 366.75 209.94 366.75 206.24 364.53 293.77 364.53 290.08 366.75" style="fill:#263238"></polygon></g><g id="freepik--Character--inject-500"><path d="M430.36,443.65c.17,2.22-6.18,2.86-8.83,1.42a61.49,61.49,0,0,1-6.11-5c-6.37-5.63-15.17-13.87-15.17-13.87l-6.52,2.94-31.85,10.6L348.45,405s15.41-6.52,30.06-12.36c2.26-.9,4.48-1.77,6.64-2.61l.4-.16c9.83-3.78,18-6.64,18.81-6C406.62,385.35,430.19,441.41,430.36,443.65Z" style="fill:#d3766a"></path><path d="M430.36,443.65c.17,2.23-6.18,2.86-8.83,1.43a60.64,60.64,0,0,1-6.11-5c-6.37-5.62-15.17-13.86-15.17-13.86l-6.52,2.93-1.06.35L378,392.8l.47-.19,6.64-2.6.4-.16c9.83-3.78,18-6.65,18.82-6.06C406.62,385.36,430.19,441.42,430.36,443.65Z" style="fill:#ebebeb"></path><path d="M430.92,444.47c-.13-2.28-23.43-59.66-25.7-61.28-.85-.63-9.41,2.28-19.65,6.09l-.32.12,14.61,37.18.62-.26s18.74,18,21.43,19.49S431.07,446.74,430.92,444.47Z" style="fill:#FFC727"></path><path d="M428.44,444.72c-4.17-9.57-20.06-48.59-23.45-58.37,0-.08,0-.1.06,0,4.34,9.4,19.91,48.55,23.54,58.34C428.67,444.86,428.52,444.92,428.44,444.72Z" style="fill:#263238"></path><path d="M401.64,430.66c-2.26-3.52-3.56-8.41-2-12.42.06-.15.28-.07.29.07a57.66,57.66,0,0,0,2.21,12.14A.26.26,0,0,1,401.64,430.66Z" style="fill:#263238"></path><path d="M404.41,432.74c-2.26-3.52-3.56-8.41-2-12.42.06-.16.28-.07.29.07a58.42,58.42,0,0,0,2.21,12.14A.26.26,0,0,1,404.41,432.74Z" style="fill:#263238"></path><path d="M407.18,434.81c-2.25-3.52-3.56-8.41-2-12.42.06-.15.28-.07.29.07a57.68,57.68,0,0,0,2.22,12.14A.27.27,0,0,1,407.18,434.81Z" style="fill:#263238"></path><path d="M400.08,435.08c1-3.55.43-7.4.32-11a.52.52,0,0,0-.72-.41c0-.05-.11-.09-.17,0a21.86,21.86,0,0,0-6.34,9.4c-.69,2.13-.49,5.29,2.18,6C397.87,439.61,399.49,437.14,400.08,435.08Zm-2.67,2.21c-3.91,2.36-3.53-3-3-4.56a21.88,21.88,0,0,1,1.36-2.9,63.55,63.55,0,0,1,3.58-5.57c-.06,1.78,0,3.54.06,5.32C399.46,431.7,399.56,436,397.41,437.29Z" style="fill:#263238"></path><path d="M388.55,413.28c-2,1.88-.63,4.74,1,6.25a21.87,21.87,0,0,0,10.14,5.08.11.11,0,0,0,.13-.11.52.52,0,0,0,.43-.71c-1.68-3.2-3.08-6.84-5.69-9.43C393.06,412.84,390.44,411.5,388.55,413.28Zm8.18,6.17c.86,1.56,1.65,3.15,2.57,4.67a65.48,65.48,0,0,1-5.86-3.09,25.2,25.2,0,0,1-2.61-1.86c-1.26-1.07-4.22-5.57.34-5.43C393.69,413.82,395.7,417.6,396.73,419.45Z" style="fill:#263238"></path><path d="M430.92,444.47c.15,2.28-6.33,2.85-9,1.34s-21.43-19.49-21.43-19.49l-.62.27L388.31,397.2l22.75-2.05C418.68,412.52,430.83,442.83,430.92,444.47Z" style="opacity:0.1"></path><path d="M387.94,435.54s-69.24,15.9-94.71,11.31c-12.18-2.2-21-17.88-15.12-29.89,5.46-11.21,38.88-22.59,48.32-29.19,3-2.06,2.66-10.26,2.66-10.26l24.8-.33s8.84,14.05,5.1,20.89c-.06.11-.13.22-.21.34L370,394.15Z" style="fill:#37474f"></path><path d="M372.61,416.82c-2.76-6-5.79-11.86-8.6-17.83-.05-.11-.23-.05-.18.07,2.65,6,5.09,12.12,7.85,18.09s5.75,11.87,8.65,17.8c.07.16.32.07.25-.09C377.91,428.86,375.36,422.8,372.61,416.82Z" style="fill:#263238"></path><path d="M358.94,398.69c-1.71,1-3.34,2.15-5,3.23s-3.29,2.1-5,3.1c-3.39,2-6.85,3.89-10.36,5.68a177.14,177.14,0,0,1-21.85,9.41c-4.18,1.47-8.4,2.9-12.69,4-.1,0-.05.16,0,.14,3.13-.75,6.26-1.48,9.35-2.36-1.64,1-3.25,2.11-4.88,3.16a.08.08,0,0,0,.08.13c1.78-1.08,3.59-2.11,5.36-3.21a.17.17,0,0,0,.05-.25l1.58-.46c3.83-1.19,7.61-2.52,11.32-4a139.58,139.58,0,0,0,21.17-10.7q2.85-1.77,5.63-3.64a51.56,51.56,0,0,0,5.34-4C359.25,398.8,359.08,398.61,358.94,398.69Z" style="fill:#263238"></path><path d="M456.93,452.16c.17,2.22-6.18,2.85-8.83,1.42a61.49,61.49,0,0,1-6.11-5c-6.36-5.63-15.17-13.87-15.17-13.87l-6.51,2.93-30.9,10.57L375,413.47s15.41-6.52,30.07-12.36l6.63-2.6.4-.16c9.84-3.78,18-6.64,18.82-6.06C433.19,393.86,456.76,449.92,456.93,452.16Z" style="fill:#d3766a"></path><path d="M456.93,452.16c.17,2.22-6.18,2.86-8.83,1.42a61.49,61.49,0,0,1-6.11-5c-6.36-5.63-15.17-13.87-15.17-13.87l-6.51,2.94-.87.3-15.19-36.48.84-.33c2.25-.9,4.47-1.77,6.63-2.61l.4-.16c9.84-3.78,18-6.64,18.82-6.05C433.19,393.86,456.76,449.92,456.93,452.16Z" style="fill:#ebebeb"></path><path d="M457.51,452.66c-.17-2.28-24.25-59.33-26.55-60.92-.86-.62-9.38,2.41-19.56,6.36l-.32.12,15.12,37,.62-.27s19,17.71,21.7,19.19S457.69,454.93,457.51,452.66Z" style="fill:#FFC727"></path><path d="M455,452.94c-4.3-9.51-20.73-48.31-24.25-58,0-.08,0-.1.06,0,4.47,9.34,20.58,48.27,24.34,58C455.26,453.08,455.12,453.14,455,452.94Z" style="fill:#263238"></path><path d="M428,439.26c-2.31-3.49-3.68-8.36-2.2-12.39.05-.16.28-.08.29.06A57.57,57.57,0,0,0,428.51,439,.26.26,0,0,1,428,439.26Z" style="fill:#263238"></path><path d="M430.84,441.29c-2.31-3.48-3.68-8.36-2.2-12.39.05-.15.28-.07.29.07a57.57,57.57,0,0,0,2.38,12.11A.26.26,0,0,1,430.84,441.29Z" style="fill:#263238"></path><path d="M433.64,443.33c-2.31-3.49-3.68-8.36-2.2-12.39.05-.16.27-.07.29.07a57.48,57.48,0,0,0,2.38,12.1A.26.26,0,0,1,433.64,443.33Z" style="fill:#263238"></path><path d="M426.54,443.69c.95-3.56.33-7.4.16-11a.51.51,0,0,0-.72-.4s-.11-.09-.17,0a21.9,21.9,0,0,0-6.21,9.49c-.66,2.14-.41,5.3,2.26,5.92S426,445.77,426.54,443.69Zm-2.64,2.25c-3.87,2.42-3.57-3-3-4.52a25.56,25.56,0,0,1,1.32-2.92c1-2,2.3-3.76,3.51-5.62,0,1.78.09,3.55.13,5.33C425.87,440.33,426,444.6,423.9,445.94Z" style="fill:#263238"></path><path d="M414.71,422.05c-2,1.91-.56,4.75,1.11,6.24a21.88,21.88,0,0,0,10.2,4.94c.09,0,.13-.05.14-.12a.51.51,0,0,0,.41-.71c-1.72-3.18-3.16-6.79-5.81-9.35C419.21,421.56,416.57,420.25,414.71,422.05Zm8.27,6.07c.88,1.54,1.68,3.12,2.63,4.63a65.53,65.53,0,0,1-5.9-3,22.51,22.51,0,0,1-2.64-1.82c-1.27-1.05-4.29-5.51.27-5.43C419.86,422.53,421.92,426.28,423,428.12Z" style="fill:#263238"></path><path d="M337.62,377.35l42.65-.64s9,23,5.3,29.87-43,16.63-43,16.63l54-20.55,18,41.38S348.85,458.35,314,454.8c-13.07-1.33-21.27-18.4-13.61-31.52,8.05-13.8,37.27-32.68,37.27-32.68Z" style="fill:#37474f"></path><path d="M395.13,402.56c-16.52,7.55-33.2,14.77-50.25,21.06q-3.56,1.32-7.12,2.6c-2.46.88-4.91,1.9-7.43,2.61-.12,0-.06.23.06.19,2.17-.82,4.43-1.4,6.64-2.12s4.31-1.43,6.45-2.17l2.78-1-.56.39c-.85.56-1.7,1.13-2.54,1.72-1.72,1.22-3.33,2.66-5.14,3.74-.11.06,0,.24.11.16,1.72-1.22,3.66-2.13,5.43-3.28.85-.56,1.69-1.15,2.53-1.74a17.35,17.35,0,0,0,2.22-1.72c2.72-1,5.43-2,8.12-3q12.75-4.84,25.17-10.46c4.63-2.1,9.21-4.28,13.74-6.58C395.57,402.86,395.38,402.44,395.13,402.56Z" style="fill:#263238"></path><path d="M400.14,425c-2.76-6-5.79-11.86-8.6-17.83-.05-.11-.24-.05-.19.07,2.65,6,5.1,12.12,7.86,18.09s5.75,11.88,8.64,17.81c.08.15.33.07.25-.09C405.43,437,402.89,430.94,400.14,425Z" style="fill:#263238"></path><path d="M336.92,391.05A116.05,116.05,0,0,0,323.45,400c-4.28,3.17-8.42,6.52-12.37,10.1-2,1.8-3.92,3.68-5.78,5.62a43.39,43.39,0,0,0-4.9,5.92,20.87,20.87,0,0,0-3.54,13,22.34,22.34,0,0,0,1.7,7.11,26,26,0,0,0,3.95,6.1c.06.08.17,0,.1-.11a16.52,16.52,0,0,1-3.33-5.83,22,22,0,0,1,1.66-18.77c2.62-4.35,6.47-7.95,10.13-11.41a154.18,154.18,0,0,1,11.86-10.1q3.46-2.67,7-5.21c2.37-1.7,4.79-3.33,7.11-5.11A.15.15,0,0,0,336.92,391.05Z" style="fill:#263238"></path><path d="M349.32,392.77a50.37,50.37,0,0,0-10.9-2.09c-3.63-.4-7.27-.6-10.93-.65-.1,0-.09.14,0,.15,3.71.33,7.41.8,11.08,1.35s7.12,1.3,10.71,1.59C349.49,393.13,349.49,392.83,349.32,392.77Z" style="fill:#263238"></path><path d="M378.32,393.27a51.44,51.44,0,0,1-6.79-.61A11.12,11.12,0,0,1,366.2,391c-3-2.27-4.26-6.26-4.9-9.82,0-.08-.16-.06-.15,0,.52,3.87.69,8.32,4.1,10.92a10.26,10.26,0,0,0,5.79,1.81,35.54,35.54,0,0,0,7.28-.45A.09.09,0,0,0,378.32,393.27Z" style="fill:#263238"></path><path d="M383,399.42a45.57,45.57,0,0,0-1.2-6.66c-.53-2.25-1.17-4.47-1.88-6.67-.81-2.49-1.75-4.95-2.73-7.38,0-.09-.18,0-.15,0,1.41,4.12,2.7,8.29,3.77,12.51q.8,3.14,1.42,6.3a13.13,13.13,0,0,1,0,6.2,10.85,10.85,0,0,1-3.41,5.31s0,.05,0,0A11.14,11.14,0,0,0,383,399.42Z" style="fill:#263238"></path><path d="M390.31,412.07c-2.88.75-5.7,1.74-8.53,2.66s-5.66,1.83-8.49,2.77c-5.65,1.89-11.28,3.84-16.91,5.78-3.2,1.11-6.37,2.29-9.55,3.45-.09,0-.05.17,0,.14q17.07-5.3,33.92-11.24c3.19-1.12,6.43-2.16,9.55-3.46C390.4,412.14,390.37,412.05,390.31,412.07Z" style="fill:#263238"></path><path d="M307.8,345.15l7.2,1.54a22.49,22.49,0,0,0,4.84-12.84c.07-1.07,1.4,5.4-1.18,13.63,7.6,1.64,17.95,3.85,27,5.71.85-3.52,1.79-6.73,1.79-6.73a40.11,40.11,0,0,0,.18,7.13c1.23.27,2.45.5,3.61.74a140.66,140.66,0,0,1,3.54-15,49.11,49.11,0,0,0,1.61,16c5.76,1.12,9.57,1.74,9.38,1.42-6.82-11.65.66-16.19-.15-25.46-1-11.12-9.75-14.52-8-22.39,1.43-6.41,4.45-17.95-3.22-22a16,16,0,0,0-16.4-6.49c-13.81,2.48-12.49,23.33-14.14,27.21-2.34,5.54-5.48,7.05-8.78,13.25s-1.17,11.27-1.68,15.85S306.36,344.86,307.8,345.15Z" style="fill:#263238"></path><path d="M366.3,355.4a22.66,22.66,0,0,1-1.73-6.18,12,12,0,0,1,1.17-6.05A61.54,61.54,0,0,0,368,337a17.07,17.07,0,0,0,.63-6.76,15.2,15.2,0,0,0-2.38-6.38,41.41,41.41,0,0,0-4.15-5.14,24.74,24.74,0,0,1-3.78-5.11,11.72,11.72,0,0,1-1.21-6.2,11,11,0,0,0,.49,6.52,22.14,22.14,0,0,0,3.51,5.62,49.87,49.87,0,0,1,3.79,5.14,14.26,14.26,0,0,1,2,5.75,16.77,16.77,0,0,1-.53,6.12c-.51,2-1.29,4-2,6.13a22.74,22.74,0,0,0-.83,3.25,9.76,9.76,0,0,0,.11,3.41A18.5,18.5,0,0,0,366.3,355.4Z" style="fill:#263238"></path><path d="M329.34,286.44a33,33,0,0,0-3.21,7.36c-.82,2.55-1.52,5.14-2.19,7.72l-1,3.85a19.18,19.18,0,0,1-1.3,3.62,21.16,21.16,0,0,1-4.77,6,28.75,28.75,0,0,0-2.76,3,18.63,18.63,0,0,0-2.16,3.58,26.9,26.9,0,0,0-1.33,3.91,16.82,16.82,0,0,0-.55,4.12c0,1.39.11,2.73.19,4a20.28,20.28,0,0,1-.11,3.9,8.21,8.21,0,0,1-4.43,6.05,8.31,8.31,0,0,0,5.24-5.9,20,20,0,0,0,.43-4.07c0-1.36-.07-2.68,0-4a21.31,21.31,0,0,1,2-7.39,17.89,17.89,0,0,1,2-3.22,28.21,28.21,0,0,1,2.64-2.86,39.85,39.85,0,0,0,2.79-3,16.1,16.1,0,0,0,2.25-3.54,21.34,21.34,0,0,0,1.29-3.94c.32-1.3.59-2.61.86-3.92.56-2.61,1.07-5.22,1.69-7.8A38.9,38.9,0,0,1,329.34,286.44Z" style="fill:#263238"></path><path d="M346.86,324.61c-7.49,11.89-22.12,28-32.25,33.63-4.37,2.43-23.47,3.33-35.1,2.32-4.34-.38.24-23.39,5-23.5,3.24-.07,20.12,2.71,22.53,1.89,4.44-1.5,20.89-13.92,32.18-20.18C345.52,315.28,351.52,317.21,346.86,324.61Z" style="fill:#d3766a"></path><path d="M291.87,338.85c-7.84-2.93-17.43-7.05-26.73-5.41a4.68,4.68,0,0,0-2.71,1.42c-4.18.66-5.12,2.83-5.12,2.83-3.71,1.81-4.37,4.17-4.37,4.17s-4.9.83-4.89,3.87c0,3.42,6.88,1.59,11.28,2.89,10.09,3,25.07,10.52,27.9,11.67Z" style="fill:#d3766a"></path><path d="M272.09,344.34a69.3,69.3,0,0,0-9-2.12A68.14,68.14,0,0,0,253,342a.09.09,0,0,1,0-.17,35.76,35.76,0,0,1,19.14,2.43C272.27,344.27,272.24,344.38,272.09,344.34Z" style="fill:#263238"></path><path d="M274.78,338.52c-2.95-.64-8.14-1.73-17.48-.71,0,0-.05-.05,0-.06a32,32,0,0,1,17.53.63C275,338.43,275,338.56,274.78,338.52Z" style="fill:#263238"></path><path d="M276.17,335.36a50.62,50.62,0,0,0-13.74-.47s0-.05,0-.05c6.06-1,8.38-.73,13.79.35C276.41,335.23,276.37,335.4,276.17,335.36Z" style="fill:#263238"></path><path d="M271.26,353c1.16.91.69,1.52-1.93,1.52s-13-2.21-13.46,1.47,14.21,5.89,18.57,6.26a27,27,0,0,0,12.79-2C284.48,359.15,276.61,355.3,271.26,353Z" style="fill:#d3766a"></path><path d="M319.88,328.9l12.27,18.58s12.18-13.3,15.77-22.58-1.24-9.65-8-6.78S319.88,328.9,319.88,328.9Z" style="fill:#FFC727"></path><path d="M323.92,328.27c-.08-.13-.19-.11-.12,0a149.72,149.72,0,0,0,10.37,15.56s.08,0,.06,0C332.86,341,324.78,329.62,323.92,328.27Z" style="fill:#263238"></path><path d="M347.93,324.9c-3.59,9.28-15.78,22.58-15.78,22.58l-8.31-12.59L347,316.63C349.26,317.13,350,319.52,347.93,324.9Z" style="opacity:0.1"></path><path d="M328.63,361.5l-1.35,23.07S372,382,384.33,381.08c0,0-12.67-45.43-26-59.86-6.65-7.22-14.46-6.68-19.43-1.64-1.26,1.28-13.59,20.67-15.17,28.26C322.39,354.53,328.63,361.5,328.63,361.5Z" style="fill:#FFC727"></path><path d="M345.52,357.88a49.59,49.59,0,0,0-7.21-.12c-1.19.09-2.37.23-3.55.39-.59.08-1.18.15-1.77.2a7.32,7.32,0,0,1-1.87,0c-.05,0-.06.07,0,.08a12.62,12.62,0,0,0,1.74.28,10.85,10.85,0,0,0,1.71,0c1.21-.07,2.42-.2,3.63-.29,2.44-.17,4.87-.35,7.32-.35C345.62,358.08,345.63,357.89,345.52,357.88Z" style="fill:#263238"></path><path d="M351,361a52.8,52.8,0,0,0-5.79-1.35c-1-.16-2-.27-2.95-.35l-1.42-.1c-.52,0-1.05,0-1.56,0-.06,0-.07.08,0,.09.49,0,1,.17,1.46.25l1.46.23,2.94.46c1.95.29,3.9.59,5.85.95A.08.08,0,0,0,351,361Z" style="fill:#263238"></path><path d="M353.8,317.52l-13.48.83.48-.36,12.45-.76C353.43,317.32,353.62,317.41,353.8,317.52Zm2.44,1.69-17.87,1.1c-.07.11-.16.22-.24.35l18.48-1.14A3.57,3.57,0,0,0,356.24,319.21Zm2.15,2-21.55,1.32c-.06.11-.14.23-.22.35l22-1.36A4,4,0,0,0,358.39,321.24Zm1.72,2.06-24.71,1.52c-.07.11-.14.23-.22.34l25.18-1.54A3.49,3.49,0,0,0,360.11,323.3Zm1.52,2.06L334,327.06c-.06.12-.13.23-.2.35l28-1.73Zm1.36,2.09-30.33,1.86c-.06.12-.13.23-.2.35l30.73-1.89A3.45,3.45,0,0,0,363,327.45Zm1.26,2.08-32.89,2a3.9,3.9,0,0,0-.19.35l33.27-2Zm1.19,2.09-35.36,2.18a3.72,3.72,0,0,1-.19.34l35.72-2.2C365.56,331.83,365.5,331.73,365.44,331.62Zm1.11,2.09L328.87,336a2.79,2.79,0,0,0-.18.34l38-2.34Zm1.07,2.11-39.93,2.45-.17.34,40.26-2.47Zm1,2.09-42.05,2.59-.16.34,42.36-2.61Zm1,2.11-44.06,2.71c-.05.12-.1.23-.14.34l44.34-2.73C369.71,340.23,369.66,340.13,369.62,340Zm.93,2.1-45.89,2.82c-.05.12-.09.23-.13.34l46.16-2.84A3.09,3.09,0,0,0,370.55,342.12Zm.91,2.11-47.53,2.93c0,.11-.06.22-.08.33l47.75-2.94A3.09,3.09,0,0,0,371.46,344.23Zm.89,2.11-48.77,3c0,.11,0,.22,0,.33l48.92-3Zm.87,2.11L323.7,351.5c0,.11,0,.22.05.33l49.6-3.06C373.3,348.66,373.26,348.56,373.22,348.45Zm.83,2.11-49.88,3.07c0,.1.07.21.11.32l49.9-3.07A3.05,3.05,0,0,0,374.05,350.56Zm.82,2.11L325,355.75l.15.32L375,353Zm.8,2.11-49.62,3.06.19.32,49.55-3C375.76,355,375.71,354.9,375.67,354.78Zm.79,2.12-49.06,3,.22.32,48.95-3C376.54,357.12,376.5,357,376.46,356.9Zm.77,2.11-48.63,3,0,.33,48.76-3A3.38,3.38,0,0,1,377.23,359Zm.74,2.13-49.5,3,0,.34,49.63-3.06C378.05,361.36,378,361.25,378,361.14Zm.73,2.11-50.35,3.1,0,.34,50.49-3.11Zm.73,2.12-51.21,3.15,0,.34,51.34-3.16C379.5,365.59,379.46,365.48,379.43,365.37Zm.7,2.12-52,3.2,0,.34,52.18-3.21Zm.69,2.12L328,372.87v.33l53-3.26C380.9,369.83,380.86,369.72,380.82,369.61Zm.68,2.12L327.84,375l0,.34,53.79-3.3C381.58,372,381.54,371.84,381.5,371.73Zm.67,2.13-54.46,3.35,0,.33,54.58-3.36C382.24,374.07,382.21,374,382.17,373.86Zm.65,2.12-55.24,3.39,0,.35,55.36-3.41C382.89,376.2,382.86,376.09,382.82,376Zm.65,2.12-56,3.45,0,.33,56.12-3.45C383.53,378.33,383.5,378.21,383.47,378.1Zm.62,2.12-56.76,3.5,0,.34,56.87-3.5C384.15,380.46,384.12,380.35,384.09,380.22Z" style="fill:#37474f;opacity:0.30000000000000004"></path><path d="M363.63,328.84c6.29,14,16.37,41.36,13.55,48.22-5.67,13.81-28.43,26.18-35.05,29-3.11,1.3-17.66-18.19-15.19-20.79,2.7-2.85,26.49-17,26.9-20.2.34-2.66-1.28-19.58-2.28-32.57C350.31,316.07,358.31,317,363.63,328.84Z" style="fill:#d3766a"></path><path d="M333.84,380.67s-10.26,1.75-16.92,3.21c-3.71.81-9.95,2.78-12.41,4.62-3.67,2.77-17.26,16.66-14,20,3,3.05,13.15-10.37,13.15-10.37s-11.45,12.63-7.18,15.65,13.74-13.69,13.74-13.69-11.48,13.25-6.59,15.66c3.7,1.82,13.13-12.81,13.13-12.81s-9.79,11.45-6.06,13.49c4.11,2.24,13.66-10.72,13.66-10.72,10.33,3.58,16.72,1.06,21.05-1.28C346.49,403.9,333.84,380.67,333.84,380.67Z" style="fill:#d3766a"></path><path d="M306.85,394.15c-9.15,8.66-11,15.71-10.89,15.54,2.05-4.2,6.49-9.83,7.76-11.39s1.93-2.55,3.19-4.11C306.94,394.16,306.88,394.12,306.85,394.15Z" style="fill:#263238"></path><path d="M313.07,398a43.05,43.05,0,0,0-9.54,11.81c-.09.18,0,.17.13,0,1.55-2,7.81-9.84,9.46-11.78C313.15,398,313.1,398,313.07,398Z" style="fill:#263238"></path><path d="M318.65,401a32.09,32.09,0,0,0-7.12,9.36c-.09.17.06.16.18,0,2.3-3.16,4.09-5.65,7-9.26C318.8,401,318.71,400.91,318.65,401Z" style="fill:#263238"></path><path d="M350.39,349.25l22.14-2.35s-6.2-16.94-12.79-24.4-9.14-3.33-9.68,4S350.39,349.25,350.39,349.25Z" style="fill:#FFC727"></path><path d="M351.69,345.37c-.15,0-.18.12,0,.11a149,149,0,0,0,18.58-2.05s0-.08,0-.08C367.14,343.31,353.29,345.23,351.69,345.37Z" style="fill:#263238"></path><path d="M349.77,332.14c0,5.74.25,11.76.46,17.36,0,.1.93-.16,1.31-.23.15,0,.07-.18-.07-.16a4.49,4.49,0,0,1-.82,0c-.21-5.66-.43-11.32-.81-17C349.84,332.1,349.77,332.1,349.77,332.14Z" style="fill:#263238"></path><path d="M350,319.51c-.24,1-5,7.37-9.56,7.12-1.47-.09-1.36-8.16-1.36-8.16l-.13-.59-1.79-8.37,9.87-6.19,1.42-.82s.34,2.32.73,5.21l.06.41c0,.17,0,.32.07.47.06.44.13.88.18,1.32s.09.66.12,1,.07.7.11,1.05A54.55,54.55,0,0,1,350,319.51Z" style="fill:#d3766a"></path><path d="M349.17,307.71a17.14,17.14,0,0,1-10.23,10.17l-1.79-8.37,9.87-6.19,1.42-.82S348.78,304.82,349.17,307.71Z" style="fill:#263238"></path><path d="M327.41,290.05c-8,12.69-1.34,18.93,1.4,20.65,2.48,1.57,11.14,6.6,20.44-5.19s5.93-19.52.44-23.41S335.44,277.37,327.41,290.05Z" style="fill:#d3766a"></path><path d="M330.69,289.43a8.78,8.78,0,0,0,1,.29,1.65,1.65,0,0,0,1.07.11.54.54,0,0,0,.31-.57,1.33,1.33,0,0,0-1-.9,1.93,1.93,0,0,0-1.4,0A.57.57,0,0,0,330.69,289.43Z" style="fill:#263238"></path><path d="M339.14,294.3a8.47,8.47,0,0,1-.79-.67,1.62,1.62,0,0,1-.68-.83.54.54,0,0,1,.31-.58,1.31,1.31,0,0,1,1.29.35,1.93,1.93,0,0,1,.75,1.18A.56.56,0,0,1,339.14,294.3Z" style="fill:#263238"></path><path d="M335.58,296.69s.05.08,0,.11c-.53.88-1,2-.36,2.72,0,0,0,.06,0,0C334.3,298.87,334.93,297.43,335.58,296.69Z" style="fill:#263238"></path><path d="M336.9,296.21c1.49.71,0,3.63-1.41,3S335.65,295.62,336.9,296.21Z" style="fill:#263238"></path><path d="M337.4,296.66c.17.3.26.73.56.92s.76.05,1.15-.12c0,0,.05,0,0,.06a1.21,1.21,0,0,1-1.44.8c-.59-.21-.72-.91-.57-1.55C337.16,296.65,337.33,296.54,337.4,296.66Z" style="fill:#263238"></path><path d="M330.66,293.66s-.09,0-.11,0c-.44.92-1.09,1.91-2.07,1.79,0,0-.05.05,0,.06C329.54,295.93,330.4,294.61,330.66,293.66Z" style="fill:#263238"></path><path d="M330.33,292.3c-1.41-.86-3,2-1.71,2.81S331.51,293,330.33,292.3Z" style="fill:#263238"></path><path d="M329.62,292.15c-.31,0-.69.18-1,0s-.39-.59-.42-1c0-.05,0,0-.06,0a1.24,1.24,0,0,0,0,1.62c.42.37,1,.09,1.48-.38C329.74,292.34,329.75,292.14,329.62,292.15Z" style="fill:#263238"></path><path d="M332.07,303.75a1.56,1.56,0,0,1-1,.19,2.77,2.77,0,0,1-.89-.7s-.07,0-.06,0a1.36,1.36,0,0,0,.94,1.05,1.1,1.1,0,0,0,1.11-.48S332.12,303.74,332.07,303.75Z" style="fill:#263238"></path><path d="M330,298.48s-.9,1.25-1.24,1.88c0,.06.1.17.31.3,0,0,0,0,0,0a3.4,3.4,0,0,0,3.53.43c.08,0,0-.14-.05-.13a5.2,5.2,0,0,1-3.18-.69c.05-.2,1.63-2.08,1.53-2.14a6.06,6.06,0,0,0-1.62-.45c1.81-2.65,4-5,5.8-7.66.06-.09-.07-.2-.15-.13a52.21,52.21,0,0,0-6.59,8C328.17,298.23,329.73,298.45,330,298.48Z" style="fill:#263238"></path><path d="M329.33,300.47a4.17,4.17,0,0,0,.8,2,1.89,1.89,0,0,0,1,.63c.82.23,1.22-.42,1.41-1.06a4.74,4.74,0,0,0,.18-1.05A5.38,5.38,0,0,1,329.33,300.47Z" style="fill:#263238"></path><path d="M330.13,302.44a1.89,1.89,0,0,0,1,.63c.82.23,1.22-.42,1.41-1.06A1.94,1.94,0,0,0,330.13,302.44Z" style="fill:#ff99ba"></path><path d="M347.72,305.49c-3.21-1.82,1.08-12.36,1.62-13.65-.38.79-2.42,5-2.82,5-.11,0-.43-.27-.93-.73h0a10.81,10.81,0,0,0,.66-1.54c.09-.24-.35.46-.94,1.28l-.52-.48a13.49,13.49,0,0,0,1.33-3.31c.11-.44-.91,1.27-2.09,2.61a44.49,44.49,0,0,0-7.77-6c-.8-.46-1.51-.81-2.15-1.11.63-1.22,1.45-2.45,1.22-2.22a13.46,13.46,0,0,0-1.7,2l-1-.42c.81-1.77,3.07-4.09,2.57-3.82a13.9,13.9,0,0,0-3.88,3.38c-1.3-.38-1.74-.32-1.61-.64a16.23,16.23,0,0,1,9-6.64c6.09-1.72,14.75,1.56,16.26,9.89,0,0,2.5,4.44,1,8.73S349.58,306.54,347.72,305.49Z" style="fill:#263238"></path><path d="M345.93,304.45s5.06-2.65,6.41-.64-4,6.92-6.6,6.59a2.53,2.53,0,0,1-2.39-2.77Z" style="fill:#d3766a"></path><path d="M350.78,305.18s0,.07,0,.06a6.45,6.45,0,0,0-4.79,2,1.4,1.4,0,0,1,2,.63s0,.09-.08.06a1.57,1.57,0,0,0-1.78-.31,8.5,8.5,0,0,0-1.37.86c-.14.1-.36-.1-.22-.24l0,0C345.58,306.25,348.55,304.28,350.78,305.18Z" style="fill:#263238"></path></g></svg>